<svg xmlns="http://www.w3.org/2000/svg" version="1.1" xmlns:xlink="http://www.w3.org/1999/xlink" xmlns:svgjs="http://svgjs.dev/svgjs" width="128" height="128" viewBox="0 0 128 128"><g transform="matrix(0.8046875,0,0,0.8046875,12.238369480098058,12.061563877218653)"><svg viewBox="0 0 96 96" data-background-color="#1f2d5a" preserveAspectRatio="xMidYMid meet" height="128" width="128" xmlns="http://www.w3.org/2000/svg" xmlns:xlink="http://www.w3.org/1999/xlink"><g id="tight-bounds" transform="matrix(1,0,0,1,0.25950000000000273,0.4242896881206093)"><svg viewBox="0 0 95.481 95.481" height="95.481" width="95.481"><g><svg viewBox="0 0 95.481 95.481" height="95.481" width="95.481"><g><svg viewBox="0 0 95.481 95.481" height="95.481" width="95.481"><g id="textblocktransform"><svg viewBox="0 0 95.481 95.481" height="95.481" width="95.481" id="textblock"><g><svg viewBox="0 0 95.481 95.481" height="95.481" width="95.481"><g><svg viewBox="0 0 95.481 95.481" height="95.481" width="95.481"><g><svg xmlns="http://www.w3.org/2000/svg" data-name="Layer 1" viewBox="2 2 60 60" x="0" y="0" height="95.481" width="95.481" class="icon-icon-0" data-fill-palette-color="accent" id="icon-0"><path d="M32 39c-1.354 0-2.682 0.047-3.965 0.13C29.02 42.162 30.558 44 32 44s2.98-1.838 3.965-4.87C34.682 39.047 33.354 39 32 39Z" fill="#2f76db" data-fill-palette-color="accent"></path><path d="M36.224 43.218a12.03 12.03 0 0 0 4.928-3.475c-0.986-0.178-2.044-0.327-3.158-0.443A14.668 14.668 0 0 1 36.224 43.218Z" fill="#2f76db" data-fill-palette-color="accent"></path><path d="M37.994 24.7c1.114-0.116 2.172-0.265 3.158-0.443a12.03 12.03 0 0 0-4.928-3.475A14.668 14.668 0 0 1 37.994 24.7Z" fill="#2f76db" data-fill-palette-color="accent"></path><path d="M27.776 20.782a12.03 12.03 0 0 0-4.928 3.475c0.986 0.178 2.044 0.327 3.158 0.443A14.668 14.668 0 0 1 27.776 20.782Z" fill="#2f76db" data-fill-palette-color="accent"></path><path d="M26.006 39.3c-1.114 0.116-2.172 0.265-3.158 0.443a12.03 12.03 0 0 0 4.928 3.475A14.668 14.668 0 0 1 26.006 39.3Z" fill="#2f76db" data-fill-palette-color="accent"></path><path d="M32 25c1.354 0 2.682-0.047 3.965-0.13C34.98 21.838 33.442 20 32 20s-2.98 1.838-3.965 4.87C29.318 24.953 30.646 25 32 25Z" fill="#2f76db" data-fill-palette-color="accent"></path><path d="M36.485 26.841C35.038 26.946 33.531 27 32 27s-3.038-0.054-4.485-0.159A24.591 24.591 0 0 0 27.023 31h9.954A24.591 24.591 0 0 0 36.485 26.841Z" fill="#2f76db" data-fill-palette-color="accent"></path><path d="M27.515 37.159C28.962 37.054 30.469 37 32 37s3.038 0.054 4.485 0.159A24.591 24.591 0 0 0 36.977 33H27.023A24.591 24.591 0 0 0 27.515 37.159Z" fill="#2f76db" data-fill-palette-color="accent"></path><path d="M25.024 33H20.051a11.879 11.879 0 0 0 1.543 4.951c1.2-0.25 2.518-0.454 3.92-0.607A26.75 26.75 0 0 1 25.024 33Z" fill="#2f76db" data-fill-palette-color="accent"></path><path d="M25.024 31a26.75 26.75 0 0 1 0.49-4.344c-1.4-0.153-2.72-0.357-3.92-0.607A11.879 11.879 0 0 0 20.051 31Z" fill="#2f76db" data-fill-palette-color="accent"></path><path d="M38.976 33a26.75 26.75 0 0 1-0.49 4.344c1.4 0.153 2.72 0.357 3.92 0.607A11.879 11.879 0 0 0 43.949 33Z" fill="#2f76db" data-fill-palette-color="accent"></path><path d="M38.976 31h4.973a11.879 11.879 0 0 0-1.543-4.951c-1.2 0.25-2.518 0.454-3.92 0.607A26.75 26.75 0 0 1 38.976 31Z" fill="#2f76db" data-fill-palette-color="accent"></path><path d="M3 12H7v2H3v2H13V14H9V12h4a1 1 0 0 0 1-1V3a1 1 0 0 0-1-1H3A1 1 0 0 0 2 3v8A1 1 0 0 0 3 12Z" fill="#2f76db" data-fill-palette-color="accent"></path><path d="M61 2H51a1 1 0 0 0-1 1v8a1 1 0 0 0 1 1h4v2H51v2H61V14H57V12h4a1 1 0 0 0 1-1V3A1 1 0 0 0 61 2Z" fill="#2f76db" data-fill-palette-color="accent"></path><path d="M13 48H3a1 1 0 0 0-1 1v8a1 1 0 0 0 1 1H7v2H2v2H14V60H9V58h4a1 1 0 0 0 1-1V49A1 1 0 0 0 13 48Z" fill="#2f76db" data-fill-palette-color="accent"></path><path d="M61 48H51a1 1 0 0 0-1 1v8a1 1 0 0 0 1 1h4v2H50v2H62V60H57V58h4a1 1 0 0 0 1-1V49A1 1 0 0 0 61 48Z" fill="#2f76db" data-fill-palette-color="accent"></path><path d="M16.437 17.851l2.856 2.856 1.414-1.414-2.856-2.856 1.465-0.489-0.632-1.9-3 1a0.99 0.99 0 0 0-0.632 0.632l-1 3 1.9 0.632Z" fill="#2f76db" data-fill-palette-color="accent"></path><path d="M44.707 20.707l2.856-2.856 0.489 1.465 1.9-0.632-1-3a0.99 0.99 0 0 0-0.632-0.632l-3-1-0.632 1.9 1.465 0.489-2.856 2.856Z" fill="#2f76db" data-fill-palette-color="accent"></path><path d="M19.293 43.293l-2.856 2.856-0.489-1.465-1.9 0.632 1 3a0.99 0.99 0 0 0 0.632 0.632l3 1 0.632-1.9-1.465-0.489 2.856-2.856Z" fill="#2f76db" data-fill-palette-color="accent"></path><path d="M47.563 46.149l-2.856-2.856-1.414 1.414 2.856 2.856-1.465 0.489 0.632 1.9 3-1a0.99 0.99 0 0 0 0.632-0.632l1-3-1.9-0.632Z" fill="#2f76db" data-fill-palette-color="accent"></path><rect x="31" y="6" width="2" height="8" fill="#2f76db" data-fill-palette-color="accent"></rect><rect x="31" y="2" width="2" height="2" fill="#2f76db" data-fill-palette-color="accent"></rect><rect x="35.586" y="14" width="2.828" height="2" transform="translate(0.23 30.556) rotate(-45)" fill="#2f76db" data-fill-palette-color="accent"></rect><rect x="26" y="13.586" width="2" height="2.828" transform="translate(-2.698 23.485) rotate(-45)" fill="#2f76db" data-fill-palette-color="accent"></rect><rect x="31" y="50" width="2" height="8" fill="#2f76db" data-fill-palette-color="accent"></rect><rect x="31" y="60" width="2" height="2" fill="#2f76db" data-fill-palette-color="accent"></rect><rect x="36" y="47.586" width="2" height="2.828" transform="translate(-23.811 40.515) rotate(-45)" fill="#2f76db" data-fill-palette-color="accent"></rect><rect x="26.189" y="47.75" width="2.121" height="2" transform="translate(-26.49 33.547) rotate(-45)" fill="#2f76db" data-fill-palette-color="accent"></rect><rect x="50" y="31" width="8" height="2" fill="#2f76db" data-fill-palette-color="accent"></rect><rect x="60" y="31" width="2" height="2" fill="#2f76db" data-fill-palette-color="accent"></rect><rect x="47.586" y="26" width="2.828" height="2" transform="translate(-4.74 42.556) rotate(-45)" fill="#2f76db" data-fill-palette-color="accent"></rect><rect x="48" y="35.586" width="2" height="2.828" transform="translate(-11.811 45.485) rotate(-45)" fill="#2f76db" data-fill-palette-color="accent"></rect><rect x="6" y="31" width="8" height="2" fill="#2f76db" data-fill-palette-color="accent"></rect><rect x="2" y="31" width="2" height="2" fill="#2f76db" data-fill-palette-color="accent"></rect><rect x="14" y="25.586" width="2" height="2.828" transform="translate(-14.698 18.515) rotate(-45)" fill="#2f76db" data-fill-palette-color="accent"></rect><rect x="13.586" y="36" width="2.828" height="2" transform="translate(-21.77 21.444) rotate(-45)" fill="#2f76db" data-fill-palette-color="accent"></rect></svg></g></svg></g></svg></g></svg></g></svg></g><g></g></svg></g><defs></defs></svg><rect width="95.481" height="95.481" fill="none" stroke="none" visibility="hidden"></rect></g></svg></g></svg>